<?xml version="1.0" encoding="UTF-8"?>
<!DOCTYPE svg PUBLIC "-//W3C//DTD SVG 1.1//EN" "http://www.w3.org/Graphics/SVG/1.1/DTD/svg11.dtd">
<svg version="1.1" xmlns="http://www.w3.org/2000/svg" xmlns:xlink="http://www.w3.org/1999/xlink" x="0" y="0" width="150" height="150" viewBox="0, 0, 150, 150">
  <g id="Layer_1">
    <path d="M103.878,10.225 L46.122,10.225 C41.31,10.225 37.371,14.16 37.371,18.975 L37.371,131.021 C37.371,135.836 41.31,139.775 46.122,139.775 L103.878,139.775 C108.69,139.775 112.629,135.84 112.629,131.025 L112.629,18.975 C112.629,14.16 108.69,10.225 103.878,10.225 z M65.761,16.533 L84.239,16.533 C84.824,16.533 85.297,17.006 85.297,17.595 C85.297,18.18 84.824,18.653 84.239,18.653 L65.761,18.653 C65.176,18.653 64.703,18.18 64.703,17.595 C64.703,17.006 65.176,16.533 65.761,16.533 z M75,135.4 C72.583,135.4 70.625,133.442 70.625,131.025 C70.625,128.607 72.583,126.649 75,126.649 C77.417,126.649 79.375,128.607 79.375,131.025 C79.375,133.442 77.417,135.4 75,135.4 z M106.54,123.581 L43.46,123.581 L43.46,24.102 L106.54,24.102 L106.54,123.581 z" fill="#0F27F5"/>
    <path d="M49.098,66.078 L52.375,68.638 L49.291,74.547 C47.749,77.271 50.398,79.925 52.086,80.849 C53.747,81.758 56.326,81.866 58.736,81.834 L63.073,74.744 L66.35,76.516 L60.663,65.98 L49.098,66.078 z M49.58,80.541 L56.616,93.539 C58.029,95.344 60.696,95.771 63.458,95.705 L70.88,95.705 L70.88,83.397 L56.808,83.298 C54.624,83.429 51.765,82.97 49.58,80.541 z M93.844,56.587 L90.016,58.212 L86.344,52.65 C84.709,49.981 81.103,51.011 79.477,52.039 C77.876,53.052 76.531,55.255 75.392,57.378 L79.49,64.608 L76.351,66.615 L88.323,66.75 L93.844,56.587 z M80.961,49.997 L66.182,49.849 C63.918,50.21 62.252,52.335 60.97,54.783 L57.372,61.274 L68.137,67.241 L75.045,54.982 C75.99,53.008 77.778,50.73 80.961,49.997 z M81.604,100.151 L82.039,96.016 L88.683,95.5 C91.811,95.364 92.658,91.711 92.547,89.79 C92.438,87.899 91.163,85.655 89.858,83.629 L81.547,83.708 L81.314,79.99 L75.392,90.396 L81.604,100.151 z M93.614,92.079 L100.909,79.224 C101.691,77.069 100.639,74.581 99.12,72.273 L95.187,65.98 L84.749,72.502 L92.122,84.488 C93.391,86.271 94.516,88.939 93.614,92.079 z" fill="#0F27F5"/>
  </g>
</svg>
